<?xml version="1.0" encoding="utf-8"?>
<!-- Generator: Adobe Illustrator 18.1.0, SVG Export Plug-In . SVG Version: 6.00 Build 0)  -->
<svg version="1.1" id="Layer_1" xmlns="http://www.w3.org/2000/svg" xmlns:xlink="http://www.w3.org/1999/xlink" x="0px" y="0px"
	 viewBox="0 0 16 16" enable-background="new 0 0 16 16" xml:space="preserve">
<circle fill="#4D4D4D" cx="8" cy="8" r="8"/>
<g>
	<path fill="#E6E6E6" d="M5.3,11H1.9c0,0,0.1-3.1,0.3-3.4s2-0.9,2.3-0.9c-0.3,0-0.7-0.3-0.7-1.2S4.3,4,5.3,4h0c1,0,1.5,0.5,1.5,1.4
		S6.3,6.8,6,6.8c0.3,0,2,0.7,2.3,0.9C8.6,8,8.7,11,8.7,11S5.3,11,5.3,11z"/>
</g>
<g>
	<path fill="#E6E6E6" d="M10.5,11H7.2c0,0,0.1-3.1,0.3-3.4c0.2-0.2,2-0.9,2.3-0.9C9.5,6.7,9,6.4,9,5.5S9.5,4,10.5,4h0
		c1,0,1.5,0.5,1.5,1.4s-0.5,1.4-0.7,1.4c0.3,0,2,0.7,2.3,0.9C13.8,8,13.9,11,13.9,11S10.5,11,10.5,11z"/>
</g>
<g>
	<path fill="#E6E6E6" d="M7.9,12H3.5c0,0,0.1-4,0.4-4.3c0.3-0.3,2.6-1.1,3-1.1c-0.4,0-1-0.4-1-1.6S6.6,3,7.9,3h0
		c1.3,0,1.9,0.6,1.9,1.8s-0.6,1.8-1,1.8c0.3,0,2.7,0.8,3,1.2s0.4,4.2,0.4,4.2S7.9,12,7.9,12z"/>
</g>
</svg>
