<?xml version="1.0" encoding="utf-8"?>
<!-- Generator: Adobe Illustrator 18.1.0, SVG Export Plug-In . SVG Version: 6.00 Build 0)  -->
<svg version="1.1" xmlns="http://www.w3.org/2000/svg" xmlns:xlink="http://www.w3.org/1999/xlink" x="0px" y="0px"
	 viewBox="0 0 200 150" enable-background="new 0 0 200 150" xml:space="preserve">
<g id="Layer_1_copy_3">
	<g>
		<path fill="#E6E6E6" d="M4.6,138l0.1-4.7C6,84.9,9.8,81,11,79.7c3.3-3.3,17.5-8.6,27.7-11.6c-3.2-4.5-5.4-11.1-5.4-19.4
			c0-18.3,10.3-29.7,27-29.7h0.1c16.9,0,26.9,10.7,26.9,28.4c0,8.8-2.4,16.1-5.8,20.8c10.3,3.4,24.8,9.3,28.1,12.6
			c1.2,1.2,5,5.2,6.3,52.4l0.1,4.7H4.6z"/>
		<path fill="#FFFFFF" d="M60.5,23.4C60.5,23.4,60.4,23.4,60.5,23.4c-0.1,0-0.1,0-0.1,0H60.5 M60.4,23.4c15.6,0,22.6,9.7,22.6,24
			c0,14.3-7,22.7-11.4,22.7c4,0,31.2,9.9,35,13.7s5,49.1,5,49.1H60.5H9.1c0,0,1.3-46.6,5.1-50.4c3.8-3.8,30.9-12.5,35-12.5
			c-4.4,0-11.4-7.1-11.4-21.4C37.8,34.3,44.8,23.4,60.4,23.4 M60.5,15h-0.1C41.3,15,29,28.2,29,48.9c0,6.6,1.2,12.2,3.3,16.7
			c-1.4,0.5-2.7,0.8-3.6,1.2C12,72.5,9.2,75.3,8,76.6c-2.8,2.8-4.8,6.7-6.5,32.3C0.7,121,0.4,132.5,0.3,133l-0.2,9h9h51.4h51.2h9
			l-0.2-9c0-0.5-0.3-11.7-1.1-23.6c-1.7-25-3.7-28.9-6.5-31.7c-1.1-1.1-4-4-20.4-10.3c-1.4-0.5-2.9-1.1-4.4-1.6
			c2.3-4.9,3.8-11.2,3.8-18.4c0-9.6-2.6-17.4-7.6-23.1c-3.8-4.4-11.1-9.4-23.7-9.5V15L60.5,15z"/>
	</g>
	<g>
		<path fill="#E6E6E6" d="M84.5,138l0.1-4.7c1.3-48.5,5.1-52.3,6.3-53.6c3.3-3.3,17.5-8.6,27.7-11.6c-3.2-4.5-5.4-11.1-5.4-19.4
			c0-18.3,10.3-29.7,27-29.7h0.1c16.9,0,26.9,10.7,26.9,28.4c0,8.8-2.4,16.1-5.8,20.8c10.3,3.4,24.8,9.3,28.1,12.6
			c1.2,1.2,5,5.2,6.3,52.4l0.1,4.7H84.5z"/>
		<path fill="#FFFFFF" d="M140.4,23.4C140.3,23.4,140.3,23.4,140.4,23.4c-0.1,0-0.1,0-0.1,0H140.4 M140.3,23.4
			c15.6,0,22.6,9.7,22.6,24c0,14.3-7,22.7-11.4,22.7c4,0,31.2,9.9,35,13.7s5,49.1,5,49.1h-51.2H89c0,0,1.3-46.6,5.1-50.4
			c3.8-3.8,30.9-12.5,35-12.5c-4.4,0-11.4-7.1-11.4-21.4C117.6,34.3,124.6,23.4,140.3,23.4 M140.4,15h-0.1
			c-19,0-31.3,13.2-31.3,33.9c0,6.6,1.2,12.2,3.3,16.7c-1.4,0.5-2.7,0.8-3.6,1.2c-16.7,5.7-19.5,8.6-20.7,9.8
			c-2.8,2.8-4.8,6.7-6.5,32.3c-0.8,12.2-1.1,23.7-1.1,24.2l-0.2,9h9h51.4h51.2h9l-0.2-9c0-0.5-0.3-11.7-1.1-23.6
			c-1.7-25-3.7-28.9-6.5-31.7c-1.1-1.1-4-4-20.4-10.3c-1.4-0.5-2.9-1.1-4.4-1.6c2.3-4.9,3.8-11.2,3.8-18.4c0-9.6-2.6-17.4-7.6-23.1
			c-3.8-4.4-11.1-9.4-23.7-9.5V15L140.4,15z"/>
	</g>
</g>
<g id="Layer_1_copy_4">
	<g>
		<path fill="#E6E6E6" d="M29.1,154l0.1-4.5c0-0.2,0.4-15.4,1.4-31.1c2.2-33.2,4.8-35.9,6.4-37.5c4.3-4.3,24.1-11.4,37.3-15.2
			c-4.6-5.5-7.9-14.3-7.9-25.8c0-22.9,12.9-37,33.8-37h0.1c21.4,0,33.7,12.8,33.7,35.4c0,12-3.6,21.7-8.5,27.6
			c13.2,4.2,33.6,12.3,37.9,16.6c1.6,1.6,4.2,4.2,6.4,36.6c1,15.3,1.4,30.1,1.4,30.3l0.1,4.4H29.1z"/>
		<path fill="#FFFFFF" d="M100.4,6.9C100.4,6.9,100.4,6.9,100.4,6.9c-0.1,0-0.1,0-0.1,0H100.4 M100.4,6.9
			c20.3,0,29.4,12.6,29.4,31.3c0,18.6-9.1,29.5-14.8,29.5c5.3,0,40.5,13.2,45.4,18.1S167,150,167,150h-66.5H33.6
			c0,0,1.6-60.9,6.6-65.8c4.9-4.9,40.2-16.4,45.5-16.4c-5.7,0-14.8-9.3-14.8-27.9C70.9,21.2,80,6.9,100.4,6.9 M100.4-2h-0.1
			C84.8-2,76,5,71.3,10.8c-5.9,7.3-9.1,17.3-9.1,29c0,10.9,2.7,18.6,5.3,23.5c-3.2,1-6,2-7.5,2.5C38.9,73,35.4,76.5,34,77.9
			c-3.1,3.1-5.6,8-7.7,40.3c-1,15.8-1.5,30.9-1.5,31.1l-0.2,8.8h9h66.8H167h9l-0.2-8.8c0-0.1-0.4-15-1.4-30.4
			c-2.1-31.5-4.6-36.3-7.7-39.4c-1.2-1.2-4.8-4.8-25.6-12.8c-2.4-0.9-5.3-2-8.5-3.1c2.8-5.1,6-13.4,6-25.4
			C138.5,13.2,124.3-1.9,100.4-2L100.4-2L100.4-2z"/>
	</g>
	<g>
		<path fill="#E6E6E6" d="M249.1,129l0.1-4.5c0-0.2,0.4-15.4,1.4-31.1c2.2-33.2,4.8-35.9,6.4-37.5c4.3-4.3,24.1-11.4,37.3-15.2
			c-4.6-5.5-7.9-14.3-7.9-25.8c0-22.9,12.9-37,33.8-37h0.1c21.4,0,33.7,12.8,33.7,35.4c0,12-3.6,21.7-8.5,27.6
			c13.2,4.2,33.6,12.3,37.9,16.6c1.6,1.6,4.2,4.2,6.4,36.6c1,15.3,1.4,30.1,1.4,30.3l0.1,4.4H249.1z"/>
		<path fill="#FFFFFF" d="M320.4-18.1C320.4-18.1,320.4-18.1,320.4-18.1c-0.1,0-0.1,0-0.1,0H320.4 M320.4-18.1
			c20.3,0,29.4,12.6,29.4,31.3c0,18.6-9.1,29.5-14.8,29.5c5.3,0,40.5,13.2,45.4,18.1c4.9,4.9,6.6,64.2,6.6,64.2h-66.5h-66.8
			c0,0,1.6-60.9,6.6-65.8c4.9-4.9,40.2-16.4,45.5-16.4c-5.7,0-14.8-9.3-14.8-27.9C290.9-3.8,300-18.1,320.4-18.1 M320.4-27h-0.1
			c-15.5,0-24.3,7-29,12.8c-5.9,7.3-9.1,17.3-9.1,29c0,10.9,2.7,18.6,5.3,23.5c-3.2,1-6,2-7.5,2.5C258.9,48,255.4,51.5,254,52.9
			c-3.1,3.1-5.6,8-7.7,40.3c-1,15.8-1.5,30.9-1.5,31.1l-0.2,8.8h9h66.8H387h9l-0.2-8.8c0-0.1-0.4-15-1.4-30.4
			c-2.1-31.5-4.6-36.3-7.7-39.4c-1.2-1.2-4.8-4.8-25.6-12.8c-2.4-0.9-5.3-2-8.5-3.1c2.8-5.1,6-13.4,6-25.4
			C358.5-11.8,344.3-26.9,320.4-27L320.4-27L320.4-27z"/>
	</g>
</g>
<g id="Layer_1_copy" display="none">
</g>
<g id="Layer_1_copy_2" display="none">
	<g display="inline">
		<path d="M-196.8,133l0.1-3.6c1.1-38.8,4.1-41.9,5.1-42.8c2.6-2.6,14-6.8,22.2-9.2c-2.5-3.6-4.3-8.9-4.3-15.5
			c0-14.6,8.3-23.7,21.6-23.8c0,0,0,0,0,0c13.5,0,21.6,8.5,21.6,22.8c0,7.1-1.9,12.9-4.7,16.7c8.2,2.7,19.9,7.4,22.5,10.1
			c1,1,4,4,5.1,41.8l0.1,3.6H-196.8z"/>
		<path fill="#FFFFFF" d="M-152,41.5C-152,41.5-152,41.5-152,41.5C-152.1,41.5-152.1,41.5-152,41.5L-152,41.5 M-152,41.5
			c12.5,0,18.1,7.8,18.1,19.3c0,11.5-5.6,18.2-9.1,18.2c3.2,0,25,8.3,28,11.3c3,3,4,39.7,4,39.7h-41h-41.2c0,0,1-37.7,4.1-40.7
			c3-3,24.8-10.2,28-10.2c-3.5,0-9.1-5.8-9.1-17.2C-170.2,50.4-164.6,41.5-152,41.5 M-152,35L-152,35c-15.3,0-25.2,10.5-25.2,27
			c0,5.3,1,9.7,2.6,13.4c-1.1,0.4-2.1,0.6-2.9,0.9c-13.3,4.6-15.6,6.8-16.6,7.8c-2.2,2.2-3.9,5.3-5.2,25.9
			c-0.6,9.8-0.9,19.2-0.9,19.6l-0.2,7.4h7.2h41.2h41h7.2l-0.2-7.4c0-0.4-0.3-9.5-0.9-19c-1.3-20-3-23.2-5.2-25.4
			c-0.9-0.9-3.2-3.2-16.4-8.3c-1.1-0.4-2.3-0.9-3.5-1.3c1.9-4,3-9,3-14.8c0-16.2-9.6-26-25.1-26V35L-152,35z"/>
	</g>
	<g display="inline">
		<path d="M-132.8,133l0.1-3.6c1.1-38.8,4.1-41.9,5.1-42.8c2.6-2.6,14-6.8,22.2-9.2c-2.5-3.6-4.3-8.9-4.3-15.5
			c0-14.6,8.3-23.7,21.6-23.8c0,0,0,0,0,0c13.5,0,21.6,8.5,21.6,22.8c0,7.1-1.9,12.9-4.7,16.7c8.2,2.7,19.9,7.4,22.5,10.1
			c1,1,4,4,5.1,41.8l0.1,3.6H-132.8z"/>
		<path fill="#FFFFFF" d="M-88,41.5C-88,41.5-88,41.5-88,41.5C-88.1,41.5-88.1,41.5-88,41.5L-88,41.5 M-88,41.5
			c12.5,0,18.1,7.8,18.1,19.3c0,11.5-5.6,18.2-9.1,18.2c3.2,0,25,8.3,28,11.3c3,3,4,39.7,4,39.7h-41h-41.2c0,0,1-37.7,4.1-40.7
			c3-3,24.8-10.2,28-10.2c-3.5,0-9.1-5.8-9.1-17.2C-106.2,50.4-100.6,41.5-88,41.5 M-88,35L-88,35c-15.3,0-25.2,10.5-25.2,27
			c0,5.3,1,9.7,2.6,13.4c-1.1,0.4-2.1,0.6-2.9,0.9c-13.3,4.6-15.6,6.8-16.6,7.8c-2.2,2.2-3.9,5.3-5.2,25.9
			c-0.6,9.8-0.9,19.2-0.9,19.6l-0.2,7.4h7.2H-88h41h7.2l-0.2-7.4c0-0.4-0.3-9.5-0.9-19c-1.3-20-3-23.2-5.2-25.4
			c-0.9-0.9-3.2-3.2-16.4-8.3c-1.1-0.4-2.3-0.9-3.5-1.3c1.9-4,3-9,3-14.8c0-16.2-9.6-26-25.1-26V35L-88,35z"/>
	</g>
</g>
<g id="Layer_1" display="none">
	<g display="inline">
		<path d="M-177.1,146l0.1-3.5c0-0.1,0.3-12.3,1.2-24.9c1.7-26.6,3.9-28.7,5.1-30c3.5-3.5,19.3-9.1,29.9-12.1
			c-3.7-4.4-6.3-11.5-6.3-20.7c0-18.4,10.4-29.7,27-29.7h0.1c17.2,0,27,10.4,27,28.4c0,9.6-2.9,17.4-6.8,22.2
			C-89.2,79-72.9,85.5-69.5,89c1.3,1.3,3.4,3.4,5.1,29.4c0.8,12.3,1.1,24.1,1.2,24.2l0.1,3.5H-177.1z"/>
		<path fill="#FFFFFF" d="M-120,28.3C-120,28.3-120,28.3-120,28.3c-0.1,0-0.1,0-0.1,0H-120 M-120,28.3c16.3,0,23.5,10.1,23.5,25
			c0,14.9-7.3,23.7-11.9,23.7c4.2,0,32.5,10.6,36.4,14.6c4,4,5.3,51.4,5.3,51.4H-120h-53.5c0,0,1.3-48.8,5.3-52.8
			c4-4,32.2-13.2,36.4-13.2c-4.6,0-11.8-7.4-11.8-22.4C-143.6,39.8-136.3,28.3-120,28.3 M-120,21L-120,21
			c-12.5,0-19.6,5.7-23.4,10.3c-4.8,5.8-7.3,13.9-7.3,23.3c0,7.6,1.7,14,4.2,18.8c-2.6,0.8-4.8,1.6-6,2c-16.9,5.8-19.7,8.7-20.8,9.7
			c-2.5,2.5-4.5,6.4-6.2,32.3c-0.8,12.6-1.2,25.1-1.2,25.2l-0.2,7.3h7.2h53.5h53.3h7.2l-0.2-7.3c0-0.1-0.3-12.2-1.2-24.5
			c-1.7-25.3-3.7-29.2-6.1-31.7c-1-1-3.9-3.9-20.5-10.3c-1.9-0.7-4.3-1.6-6.8-2.5c2.3-4.1,4.8-10.8,4.8-20.3
			c0-20-11.5-32.2-30.5-32.2V21L-120,21z"/>
	</g>
</g>
</svg>
