<?xml version="1.0" encoding="utf-8"?>
<!-- Generator: Adobe Illustrator 18.1.1, SVG Export Plug-In . SVG Version: 6.00 Build 0)  -->
<svg version="1.1" id="Layer_1" xmlns="http://www.w3.org/2000/svg" xmlns:xlink="http://www.w3.org/1999/xlink" x="0px" y="0px"
	 viewBox="0 0 16 16" enable-background="new 0 0 16 16" xml:space="preserve">
<path fill="#4D4D4D" d="M8,16L8,16c-4.4,0-8-3.6-8-8v0c0-4.4,3.6-8,8-8h0c4.4,0,8,3.6,8,8v0C16,12.4,12.4,16,8,16z"/>
<g>
	<path fill="#E6E6E6" d="M6.7,9.6l0-0.4c0-0.8,0.2-1.5,0.9-2.4c0.5-0.6,0.9-1.1,0.9-1.6c0-0.5-0.3-0.9-1.1-0.9
		c-0.5,0-1.1,0.2-1.5,0.4L5.4,3.2c0.5-0.3,1.4-0.6,2.5-0.6c2,0,2.9,1.1,2.9,2.3c0,1.1-0.7,1.9-1.3,2.5C8.9,8.1,8.7,8.7,8.7,9.4v0.3
		H6.7z M6.3,11.7c0-0.8,0.6-1.4,1.3-1.4c0.8,0,1.3,0.6,1.4,1.4c0,0.8-0.5,1.4-1.4,1.4C6.9,13.1,6.3,12.5,6.3,11.7z"/>
</g>
</svg>
