<?xml version="1.0" encoding="utf-8"?>
<!-- Generator: Adobe Illustrator 18.1.0, SVG Export Plug-In . SVG Version: 6.00 Build 0)  -->
<svg version="1.1" id="Layer_1" xmlns="http://www.w3.org/2000/svg" xmlns:xlink="http://www.w3.org/1999/xlink" x="0px" y="0px"
	 viewBox="0 0 16 16" enable-background="new 0 0 16 16" xml:space="preserve">
<circle fill="#8E0000" cx="8" cy="8" r="8"/>
<g>
	<path fill="#FFFFFF" d="M6.8,11.9c0-0.4,0.1-0.7,0.3-0.9c0.2-0.2,0.5-0.3,0.9-0.3c0.4,0,0.7,0.1,0.9,0.3c0.2,0.2,0.3,0.5,0.3,0.9
		c0,0.4-0.1,0.6-0.3,0.9C8.7,12.9,8.4,13,8,13c-0.4,0-0.7-0.1-0.9-0.3C6.9,12.5,6.8,12.3,6.8,11.9z M8.8,9.5H7.2L6.8,2.9h2.4
		L8.8,9.5z"/>
</g>
</svg>
