<?xml version="1.0" encoding="utf-8"?>
<!-- Generator: Adobe Illustrator 19.1.0, SVG Export Plug-In . SVG Version: 6.00 Build 0)  -->
<svg version="1.1" id="Layer_1" xmlns="http://www.w3.org/2000/svg" xmlns:xlink="http://www.w3.org/1999/xlink" x="0px" y="0px"
	 viewBox="0 0 56 56" style="enable-background:new 0 0 56 56;" xml:space="preserve">
<style type="text/css">
	.st0{fill:#8C4646;}
</style>
<path class="st0" d="M44,0H12C5.4,0,0,5.4,0,12v32c0,6.6,5.4,12,12,12h32c6.6,0,12-5.4,12-12V12C56,5.4,50.6,0,44,0z M12.6,8h30.8
	c2.4,0,4.3,1.6,4.3,4s-1.9,4-4.3,4H12.6c-2.4,0-4.3-1.6-4.3-4S10.2,8,12.6,8z M12.6,24h30.8c2.4,0,4.3,1.6,4.3,4s-1.9,4-4.3,4H12.6
	c-2.4,0-4.3-1.6-4.3-4S10.2,24,12.6,24z M43.8,48H13c-2.4,0-4.3-1.6-4.3-4s1.9-4,4.3-4h30.8c2.4,0,4.3,1.6,4.3,4S46.2,48,43.8,48z"
	/>
</svg>
