<svg height="100%" id="Layer_1" style="enable-background:new 0 0 32 32;" version="1.1" viewBox="0 0 32 32" width="100%" xml:space="preserve" xmlns="http://www.w3.org/2000/svg" xmlns:xlink="http://www.w3.org/1999/xlink" xmlns:svg="http://www.w3.org/2000/svg"><rect id="svgEditorBackground" x="0" y="0" width="32" height="32" style="fill: none; stroke: none;"/><path d="M4,10h24c1.1040000915527344,0,2,-0.8959999084472656,2,-2s-0.8959999084472656,-2,-2,-2h-24c-1.1040000915527344,0,-2,0.8959999084472656,-2,2s0.8959999084472656,2,2,2ZM28,14h-24c-1.1040000915527344,0,-2,0.8959999084472656,-2,2s0.8959999084472656,2,2,2h24c1.1040000915527344,0,2,-0.8959999084472656,2,-2s-0.8959999084472656,-2,-2,-2ZM28,22h-24c-1.1040000915527344,0,-2,0.8959999084472656,-2,2s0.8959999084472656,2,2,2h24c1.1040000915527344,0,2,-0.8959999084472656,2,-2s-0.8959999084472656,-2,-2,-2Z" fill="#3f3630"/></svg>